PathFileType	4	(X/Y/Z)	C:\Users\WrightLab\Desktop\Jo\P5V29.trc
DataRate	CameraRate	NumFrames	NumMarkers	Units	OrigDataRate	OrigDataStartFrame	OrigNumFrames
100.00	100.00	       15	19	mm	100.00	665	       759
Frame#	Time	Headset_Front			Headset_Back			Headset_Left			Headset_Right			Left_Shoulder			Right_Shoulder			Sternum			C7			Left Elbow			Right Elbow			Left Wrist			Right Wrist			Left ASIS			Right ASIS			S2			Left Knee			Right Knee			Left Ankle			Right Ankle			
		X1	Y1	Z1	X2	Y2	Z2	X3	Y3	Z3	X4	Y4	Z4	X5	Y5	Z5	X6	Y6	Z6	X7	Y7	Z7	X8	Y8	Z8	X9	Y9	Z9	X10	Y10	Z10	X11	Y11	Z11	X12	Y12	Z12	X13	Y13	Z13	X14	Y14	Z14	X15	Y15	Z15	X16	Y16	Z16	X17	Y17	Z17	X18	Y18	Z18	X19	Y19	Z19	

665	6.640				90.75830	1634.88977	-249.85733							88.70129	1482.98059	-450.23419	-177.62057	1446.82532	-160.02943	-34.17294	1291.90515	-270.22195	-149.73853	1533.65369	-385.37808	111.78452	1187.52197	-521.26276	-232.25708	1193.66504	-39.22300	102.57939	959.05365	-419.81052	-64.09903	1059.87598	76.45522	18.26749	906.00836	-353.58652	-207.50696	942.07965	-183.06183	-214.82799	995.28748	-499.38550	10.35693	489.15970	-362.10089	-314.10144	510.66217	-187.43665	-89.59222	81.20026	-351.01944	-401.64114	125.11055	-317.55011	
666	6.650				87.41004	1638.24255	-254.72348							89.30409	1482.55615	-451.68066	-181.10484	1447.75037	-164.43439	-36.13903	1292.49597	-271.75452	-150.79161	1533.26819	-389.91675	112.98087	1187.45532	-521.87799	-237.48286	1194.76367	-43.69330	103.82489	958.90039	-418.45914	-70.55296	1060.34814	73.18149	18.46205	905.90704	-353.87991	-209.69508	941.39355	-185.67023	-213.94815	994.64233	-501.82349	9.72755	488.93402	-362.39978	-314.16315	511.93896	-189.29962	-89.53305	81.18734	-351.03024	-401.54071	127.83974	-330.23120	
667	6.660				84.04437	1641.67566	-259.51389							89.04641	1482.40417	-452.90024	-184.57524	1448.62878	-167.88863	-37.45698	1293.21936	-273.01941	-151.68503	1533.48987	-392.92252	114.26860	1187.01392	-521.42804	-242.44618	1196.03821	-47.69884	104.24989	958.77332	-417.28116	-76.81200	1061.24878	70.34551	18.52528	905.29388	-354.35159	-212.09947	941.20544	-189.98811	-213.10950	993.91913	-504.43915	9.11749	488.71906	-362.30902	-313.47113	511.76837	-190.44827	-89.07957	81.30312	-351.52695	-401.57800	131.74057	-344.48758	
668	6.670				80.51541	1645.18799	-263.95380							88.63807	1482.09326	-454.52045	-189.37578	1448.72095	-174.48326	-38.58469	1293.43237	-274.46432	-152.57205	1532.91113	-399.12653	115.26688	1186.75696	-521.73328	-247.49843	1196.92664	-51.79344	105.01641	958.17426	-416.73285	-82.97382	1061.43420	67.00823	17.71386	904.89972	-355.03363	-211.61595	943.28418	-187.91656	-212.24820	992.91925	-506.83994	8.27263	489.19305	-362.33679	-313.58356	511.56085	-191.58188	-89.03302	81.29148	-351.53610	-400.35437	134.65381	-358.16632	
669	6.680				77.04025	1648.26697	-268.42963							88.34884	1481.65442	-454.97537	-192.75848	1448.80725	-179.54938	-41.10214	1294.08228	-276.27310	-153.61176	1532.43750	-402.70932	115.83074	1186.29333	-522.89764	-252.59436	1198.00049	-56.11853	105.70222	957.76770	-416.74380	-88.79468	1061.75562	63.59685	18.60360	905.75476	-354.24515	-213.48218	942.95898	-190.53706	-211.53014	991.97559	-509.63513	9.58319	490.24673	-362.09143	-314.06964	510.50430	-194.44336	-88.66360	80.79686	-351.23672	-400.02286	138.39024	-372.33093	
670	6.690				73.33666	1651.13306	-273.67163							87.65951	1481.31824	-456.37442	-197.73918	1448.72852	-185.10878	-42.82431	1294.29004	-277.28857	-154.89200	1532.09399	-406.93213	116.37856	1185.78894	-523.47375	-257.30881	1198.73157	-60.15788	105.64821	957.08008	-416.39920	-95.08437	1062.73645	60.81994	19.10630	905.66577	-354.26779	-214.86411	943.01105	-192.62502	-210.53639	991.02313	-511.56915	6.51609	489.48541	-362.50375	-314.53561	510.26218	-196.28568	-88.53522	81.32865	-351.65451	-399.37665	142.72528	-383.96530	
671	6.700				69.56546	1654.40515	-278.69733							87.12914	1480.91443	-457.93378	-200.12656	1450.33020	-189.12021	-45.08893	1295.30310	-279.00601	-156.25006	1531.73792	-410.88831	116.96954	1185.42798	-523.17059	-262.25247	1199.67847	-64.34697	106.75520	957.72955	-414.85950	-101.33375	1063.13403	57.69832	19.10630	905.66577	-354.26779	-217.17760	942.31610	-195.84732	-209.50491	990.14288	-513.65149	5.62591	489.45932	-362.05804	-314.93939	509.70255	-198.28873	-88.47939	81.32006	-351.66302	-398.32352	146.62502	-398.38974	
672	6.710				65.91128	1656.54944	-284.19257							86.32024	1480.90662	-459.69775	-203.92604	1451.79065	-193.48849	-49.23734	1294.71436	-284.27698	-157.31445	1530.96790	-415.73593	117.27539	1184.69775	-522.62872	-267.89865	1200.88037	-69.28135	105.79310	956.85309	-415.98795	-107.16000	1063.49890	54.49329	18.51784	905.02307	-354.98999	-220.38602	942.69891	-196.94098	-208.58252	989.51721	-516.66077	5.32457	489.29041	-361.94034	-315.98230	509.54333	-201.37622	-88.09056	80.91050	-351.50317	-397.61826	150.80380	-411.61633	
673	6.720				62.26435	1658.91040	-289.08755							85.53483	1480.67810	-461.71149	-206.98820	1451.95630	-196.80186	-51.49252	1295.92395	-286.72546	-159.07002	1530.45825	-420.17200	117.45034	1184.47546	-522.83044	-272.15225	1201.84277	-73.54569	105.96698	956.82251	-415.50732	-113.08076	1064.17004	50.98610	18.51784	905.02307	-354.98999	-221.36136	944.18811	-198.49034	-207.70715	988.40033	-519.05743	4.94181	489.05624	-361.97025	-317.39426	508.78760	-204.51866	-87.83701	81.03916	-351.62976	-396.60806	154.62820	-424.68326	
674	6.730				58.53373	1661.05811	-293.36975							83.94650	1480.42517	-463.62292	-212.78458	1452.80310	-203.02129	-53.37962	1296.73193	-287.57275	-161.49503	1530.86035	-425.72955	117.39636	1184.36047	-523.54706	-276.91452	1202.56897	-78.09494	107.37058	956.98389	-413.99365	-119.32012	1064.71924	47.16148	18.38369	905.08368	-355.31958	-222.61325	944.45471	-201.89532	-206.87482	987.40967	-521.84442	4.09837	488.68549	-362.16531	-318.53091	507.61551	-207.82150	-87.60299	81.06595	-352.22647	-395.57153	158.69464	-437.43289	
675	6.740				54.67104	1663.11011	-299.10791							83.71896	1480.22375	-466.11331	-214.94847	1453.74792	-207.74774	-56.00370	1297.93213	-289.00482	-162.33655	1528.99939	-429.25858	117.59107	1183.68921	-523.75989	-281.89200	1203.24561	-82.85648	107.41108	956.83691	-413.81708	-125.40879	1065.04333	43.71690	18.80360	905.51575	-355.29102	-225.54149	944.01776	-203.62073	-207.39365	986.92725	-526.91461	3.57584	488.80780	-362.35245	-319.39719	507.05972	-209.94511	-86.65887	81.31329	-351.83566	-395.10666	162.67389	-450.35632	
676	6.750				50.63757	1665.44031	-305.26456							82.51166	1479.93982	-467.84283	-218.53754	1454.80994	-211.62845	-58.56591	1297.80701	-290.77808	-164.03476	1528.95386	-434.91260	117.45110	1183.22791	-523.51593	-286.95596	1204.61572	-88.20166	107.51436	956.88721	-412.83850	-130.82556	1065.21326	40.17079	18.60469	905.76892	-355.49039	-228.22276	943.63116	-208.20503	-205.15205	985.49622	-526.00128	3.02943	488.53183	-362.61343	-322.00711	506.47653	-215.13356	-86.78817	81.37995	-351.77585	-394.05331	166.05231	-462.42444	
677	6.760	-40.63662	1654.89465	-114.61281	46.98095	1666.64075	-309.63599							80.64851	1479.82520	-469.99704	-222.57231	1454.62927	-215.81061	-61.64442	1298.31165	-293.21808	-166.28995	1528.37390	-439.68430	117.48603	1182.59912	-524.88110	-291.23550	1205.02551	-93.44844	108.88287	957.50531	-411.35022	-137.06612	1065.52795	36.40530	18.90377	905.65851	-356.06467	-231.10185	942.43542	-214.82033	-204.79039	984.31610	-528.93488	2.55159	488.73343	-363.19629	-323.24612	505.41354	-217.87544	-86.34682	80.85135	-351.92761	-393.15903	169.52921	-474.49203	
678	6.770	-43.62912	1655.90540	-121.79067	43.21236	1668.26099	-313.85074							78.99981	1479.79077	-472.24493	-226.48189	1456.16406	-220.41885	-63.63044	1299.61719	-296.26685	-168.06938	1527.61243	-443.93100	117.27335	1182.30408	-525.44177	-295.56287	1205.09729	-97.86639	108.32816	957.40649	-411.46106	-143.76427	1066.30090	32.68248	18.75902	905.93433	-356.41492	-234.41408	942.18304	-218.60938	-205.31712	983.33484	-534.42224	2.01241	488.82455	-363.55161	-325.66241	504.77667	-223.12286	-86.31380	81.05555	-352.04663	-391.72543	172.26259	-486.78418	
679	6.780				39.26544	1669.94971	-319.73001							77.61967	1480.02759	-475.49252	-230.02298	1457.42371	-224.12686	-65.86079	1299.85193	-298.36853	-169.54749	1526.83655	-448.37073	116.93970	1182.02161	-525.56714	-300.56750	1205.41040	-102.54803	107.46935	957.39484	-411.52139	-149.89183	1066.85938	29.18298	18.40818	906.08258	-356.20737	-234.14633	944.56689	-220.00656	-203.67184	982.35797	-533.99341	2.26169	489.18567	-363.83737	-327.25693	503.59256	-227.15152	-86.17195	80.87289	-351.96292	-390.90652	174.84705	-498.03030	
